<?xml version="1.0" encoding="UTF-8"?>
<svg version="1.1" xmlns="http://www.w3.org/2000/svg" width="225" height="225">
<path d="M0 0 C74.25 0 148.5 0 225 0 C225 74.25 225 148.5 225 225 C150.75 225 76.5 225 0 225 C0 150.75 0 76.5 0 0 Z " fill="#FEFEFE" transform="translate(0,0)"/>
<path d="M0 0 C0.75222839 -0.0066568 1.50445679 -0.0133136 2.27947998 -0.02017212 C3.86972619 -0.03028075 5.46001466 -0.03498969 7.05029297 -0.03466797 C9.46264188 -0.03902326 11.87313298 -0.07530828 14.28515625 -0.11328125 C30.51090394 -0.23342357 30.51090394 -0.23342357 36.73095703 5.78369141 C40.44864778 9.9702089 42.47773128 13.49577612 42.5090332 19.08520508 C42.51856522 20.02330521 42.52809723 20.96140533 42.53791809 21.92793274 C42.53700668 22.93526962 42.53609528 23.94260651 42.53515625 24.98046875 C42.53944138 26.0236174 42.5437265 27.06676605 42.54814148 28.14152527 C42.55388223 30.34800491 42.55438692 32.55450348 42.55004883 34.76098633 C42.5468965 38.12549445 42.57032538 41.48911668 42.59570312 44.85351562 C42.597977 46.99999889 42.59867921 49.14648452 42.59765625 51.29296875 C42.606866 52.29423294 42.61607574 53.29549713 42.62556458 54.32710266 C42.57800711 61.56179665 41.75598122 66.56217066 36.734375 72.0859375 C35.909375 72.8284375 35.084375 73.5709375 34.234375 74.3359375 C33.22964695 75.33118699 32.22857804 76.33017396 31.234375 77.3359375 C42.73469918 97.86614586 56.03927734 111.85980085 77.234375 122.3359375 C77.47414063 121.57796875 77.71390625 120.82 77.9609375 120.0390625 C79.43595923 116.90803478 80.71267774 115.9144175 83.609375 114.0859375 C84.38023437 113.58578125 85.15109375 113.085625 85.9453125 112.5703125 C89.42897913 110.69174824 92.5494345 110.21227691 96.47705078 110.15893555 C97.30536407 110.14610031 98.13367737 110.13326508 98.98709106 110.12004089 C99.87564789 110.11265396 100.76420471 110.10526703 101.6796875 110.09765625 C103.06726761 110.08554863 103.06726761 110.08554863 104.48287964 110.07319641 C106.44136697 110.05937725 108.39987818 110.04864542 110.35839844 110.04077148 C112.34837977 110.02927712 114.33833089 110.00886587 116.328125 109.97924805 C119.21635714 109.93627983 122.10367418 109.92036019 124.9921875 109.91015625 C125.86859894 109.89264816 126.74501038 109.87514008 127.64797974 109.85710144 C134.46275829 109.88063364 141.50818605 111.17667074 146.85818481 115.71269226 C153.53842797 123.33141593 153.73579441 130.84024667 153.68041992 140.44824219 C153.6719231 142.6982009 153.70068387 144.94560483 153.73242188 147.1953125 C153.77598374 155.90659725 153.3893456 162.42206816 147.5234375 169.359375 C146.69972656 170.02839844 146.69972656 170.02839844 145.859375 170.7109375 C145.31539062 171.17242187 144.77140625 171.63390625 144.2109375 172.109375 C139.32684645 175.14021411 134.52774551 175.5984373 128.87890625 175.63671875 C128.18391022 175.64231812 127.48891418 175.64791748 126.77285767 175.65368652 C124.53064051 175.66555391 122.28909101 175.65934744 120.046875 175.6484375 C118.89930222 175.64570328 118.89930222 175.64570328 117.72854614 175.64291382 C106.00079871 175.5957144 94.68247852 175.0843636 83.234375 172.3359375 C82.54778809 172.1802832 81.86120117 172.02462891 81.15380859 171.86425781 C64.04016111 167.86801573 47.24119753 159.93513007 33.234375 149.3359375 C32.32945313 148.65144531 31.42453125 147.96695313 30.4921875 147.26171875 C1.35860248 124.2767232 -17.28784444 91.30791453 -21.765625 54.3359375 C-22.09178762 48.61821351 -22.07790367 42.88295874 -22.11572266 37.1574707 C-22.13230922 35.31977702 -22.15963481 33.48214855 -22.19775391 31.64477539 C-22.25279781 28.969881 -22.27443032 26.29647967 -22.2890625 23.62109375 C-22.31173187 22.80939224 -22.33440125 21.99769073 -22.35775757 21.16139221 C-22.33540877 15.06352668 -20.5699354 11.08705586 -16.765625 6.3359375 C-11.37611117 1.34077834 -7.2731394 0.02248753 0 0 Z " fill="#525252" transform="translate(50.765625,25.6640625)"/>
<path d="M0 0 C0.65073486 -0.00619858 1.30146973 -0.01239716 1.97192383 -0.01878357 C3.34357207 -0.02586675 4.71530655 -0.0227337 6.08691406 -0.01000977 C8.18195088 0.00386949 10.27252711 -0.03023439 12.3671875 -0.06835938 C13.70312609 -0.06931058 15.03907025 -0.06745164 16.375 -0.0625 C17.58542969 -0.0632251 18.79585937 -0.0639502 20.04296875 -0.06469727 C23.1875 0.56640625 23.1875 0.56640625 25.57788086 2.51196289 C27.81388482 6.75504579 27.78066163 10.33442567 27.75390625 15.06640625 C27.76320412 16.43635742 27.76320412 16.43635742 27.77268982 17.83398438 C27.7797777 19.76040585 27.77663201 21.68688871 27.76391602 23.61328125 C27.75004368 26.55713755 27.78414261 29.49781793 27.82226562 32.44140625 C27.82321682 34.31640703 27.82135797 36.19141177 27.81640625 38.06640625 C27.82966446 38.94361328 27.84292267 39.82082031 27.85658264 40.72460938 C27.788838 45.18045927 27.63764762 46.99685134 24.78808594 50.60229492 C21.20049865 53.31184616 18.56085484 53.75103501 14.1875 54.56640625 C13.6994858 61.35212749 15.11626147 65.77434297 18.125 71.81640625 C18.53032959 72.64833496 18.93565918 73.48026367 19.35327148 74.33740234 C22.90726401 81.41792754 27.06141639 87.50746779 32.1875 93.56640625 C33.12142578 94.74203125 33.12142578 94.74203125 34.07421875 95.94140625 C43.02762562 106.75306738 54.90151657 114.10400868 67.1875 120.56640625 C68.49267578 121.26830078 68.49267578 121.26830078 69.82421875 121.984375 C74.77002052 124.44468047 77.80724685 124.9400879 83.1875 123.56640625 C83.36925781 122.95152344 83.55101562 122.33664063 83.73828125 121.703125 C83.98964844 120.89488281 84.24101562 120.08664063 84.5 119.25390625 C84.74363281 118.45339844 84.98726563 117.65289062 85.23828125 116.828125 C86.27518862 114.35746917 87.1130948 113.24037568 89.1875 111.56640625 C91.22972107 111.17199707 91.22972107 111.17199707 93.59545898 111.14648438 C94.48325546 111.13057251 95.37105194 111.11466064 96.28575134 111.0982666 C97.72018333 111.09796448 97.72018333 111.09796448 99.18359375 111.09765625 C100.16868423 111.09004272 101.15377472 111.0824292 102.16871643 111.07458496 C104.25250717 111.06377738 106.3363521 111.06093352 108.42016602 111.06542969 C111.6098053 111.06640162 114.79703659 111.02479525 117.98632812 110.98046875 C120.01041164 110.97526156 122.03450353 110.97257356 124.05859375 110.97265625 C125.01285751 110.95626099 125.96712128 110.93986572 126.95030212 110.92297363 C133.48763264 110.9912521 133.48763264 110.9912521 136.78515625 113.70117188 C139.41596874 119.07638347 138.80063145 124.69315758 138.75 130.56640625 C138.77384766 131.83742187 138.79769531 133.1084375 138.82226562 134.41796875 C138.82033203 135.64257812 138.81839844 136.8671875 138.81640625 138.12890625 C138.8174939 139.80146484 138.8174939 139.80146484 138.81860352 141.5078125 C137.96668673 145.63656047 136.56518516 147.08618463 133.1875 149.56640625 C129.84448242 150.18164062 129.84448242 150.18164062 126.04296875 150.16015625 C125.0117968 150.16021667 125.0117968 150.16021667 123.95979309 150.16027832 C122.50313186 150.15492979 121.04647072 150.13737477 119.59008789 150.10839844 C117.41912774 150.06724279 115.25135519 150.06727939 113.08007812 150.07421875 C103.1464074 150.02811364 93.89012468 148.68641035 84.1875 146.56640625 C83.10637939 146.34380127 82.02525879 146.12119629 80.91137695 145.8918457 C62.57258128 142.01763746 45.10397103 131.79603231 31.1875 119.56640625 C30.35734375 118.880625 29.5271875 118.19484375 28.671875 117.48828125 C10.18873257 101.79504711 -1.62553573 79.74689905 -7.8125 56.56640625 C-8.00585938 55.88320312 -8.19921875 55.2 -8.3984375 54.49609375 C-11.08951955 44.55079052 -11.05615816 34.38260485 -11.10766602 24.15356445 C-11.11928731 22.54475176 -11.13989532 20.93598053 -11.16918945 19.32739258 C-11.21173427 16.98362482 -11.22800237 14.64098005 -11.23828125 12.296875 C-11.25578934 11.58017136 -11.27329742 10.86346771 -11.29133606 10.12504578 C-11.2771549 6.87067685 -11.00790596 4.8651923 -9.21166992 2.11865234 C-6.01057083 0.04756371 -3.80104112 0.03415472 0 0 Z " fill="#FDFDFD" transform="translate(52.8125,38.43359375)"/>
</svg>
