<svg width="189" height="49" xmlns="http://www.w3.org/2000/svg" xmlns:xlink="http://www.w3.org/1999/xlink"><defs><path id="a" d="M0 .246h188.675v48.17H0z"/></defs><g fill="none" fill-rule="evenodd"><mask id="b" fill="#fff"><use xlink:href="#a"/></mask><path d="M43.015 7.128v5.984c0 5.543-3.557 6.653-6.375 6.653-2.817 0-6.374-1.11-6.374-6.653V6.163c0-.67.393-1.085 1.016-1.085.624 0 1.017.415 1.017 1.085v7.735c0 2.587 1.755 4.11 4.341 4.11 2.588 0 4.343-1.523 4.343-4.11v-6.77h-.942l1.891-3.862 1.89 3.862h-.807zM25.222 23.095h22.85V.245h-22.85v22.85z" fill="#E7792B" mask="url(#b)"/><path d="M16.234 32.317v-.921h-3.717v13.452c0 .662-.393 1.073-1.016 1.073-.624 0-1.016-.411-1.016-1.073V31.396H5.05c-.578 0-.994-.297-.994-.936 0-.64.416-.936.994-.936h11.184v-.989l3.862 1.892-3.862 1.89zM0 48.435h22.85v-22.85H0v22.85z" fill="#7AB642" mask="url(#b)"/><path d="M43.23 42.112c.408.409.492.913.04 1.364-.451.452-.955.368-1.364-.04l-5.18-5.18-5.622 5.621c-.408.409-.912.493-1.364.04-.452-.451-.368-.955.04-1.363l5.622-5.622-5.496-5.496c-.408-.408-.492-.912-.04-1.364.452-.452.956-.368 1.364.04l5.496 5.496 4.716-4.716-.698-.7 4.068-1.393-1.395 4.068-.651-.652-4.716 4.717 5.18 5.18zm-18.008 6.323h22.85v-22.85h-22.85v22.85z" fill="#BD2531" mask="url(#b)"/><path d="M11.804 5.476c-4.064 0-6.076 3.464-6.076 6.605 0 3.142 2.063 6.606 5.948 6.606 2.752 0 3.962-1.478 4.913-1.478.541 0 .901.369.901.947 0 1.039-2.598 2.287-5.814 2.287-5.3 0-8.027-4.088-8.027-8.362 0-4.272 2.727-8.36 8.155-8.36 2.091 0 3.687.905 4.559 1.661l.034-.028.757-.636 1.034 4.174-3.931-1.743.705-.592.043-.036c-.641-.466-1.505-1.045-3.201-1.045zM0 23.095h22.85V.245H0v22.85z" fill="#006CA7" mask="url(#b)"/><path fill="#1A1919" mask="url(#b)" d="M65.539 48.435h-5.867V22.126h-6.066v-5.38h18v5.38h-6.067v26.31m21.647-26.31v6.977h9.338v5.379h-9.338v8.574h9.697v5.38H81.32v-31.69h15.564v5.38h-9.697m19.924-5.38h6.944l4.789 9.835 4.39-9.835h6.944l-8.341 14.92 9.258 16.77h-6.823l-6.067-11.6-5.747 11.6h-6.864l9.618-16.77-8.1-14.92m43.318 9.048h-.079l-3.312 11.219h7.144l-3.752-11.219zm-5.067 16.131l-2.475 6.51h-6.186l11.733-31.689h4.55l11.414 31.69h-6.266l-2.314-6.51h-10.456zm39.56-17.755c-1.117-1.517-2.555-2.475-4.51-2.475-1.876 0-3.672 1.437-3.672 3.393 0 5.068 11.934 2.953 11.934 13.05 0 6.027-3.752 10.297-9.898 10.297-4.151 0-7.184-2.394-9.26-5.866l3.792-3.712c.798 2.315 2.914 4.39 5.428 4.39 2.394 0 3.87-2.036 3.87-4.35 0-3.114-2.872-3.991-5.227-4.91-3.871-1.596-6.705-3.55-6.705-8.22 0-4.99 3.711-9.02 8.78-9.02 2.674 0 6.386 1.316 8.221 3.352l-2.753 4.07"/><path d="M62.183 4.081A3.402 3.402 0 0059.6 2.854c-2.193 0-3.453 1.994-3.453 3.988 0 1.948 1.307 3.896 3.438 3.896.98 0 1.96-.506 2.598-1.227v2.685c-.856.399-1.711.69-2.66.69-3.298 0-5.74-2.807-5.74-5.998 0-3.282 2.349-6.182 5.786-6.182.918 0 1.82.245 2.614.675v2.7m4.574 2.213h.296c1.26 0 2.146-.386 2.146-1.86 0-1.491-.918-1.78-2.13-1.78h-.312v3.64zm5.647 6.524h-2.769l-2.847-4.873h-.03v4.873H64.47V.731h3.096c2.318 0 3.92 1.057 3.92 3.639 0 1.538-.824 3.078-2.396 3.35l3.314 5.098zm3.812-10.035v2.661h3.64v2.052h-3.64v3.27h3.78v2.052H73.93V.731h6.067v2.052h-3.78m8.369 7.983h.373c2.816 0 3.905-1.603 3.905-3.992 0-2.629-1.307-3.991-3.905-3.991h-.373v7.983zM82.299.731h3.267c3.391 0 5.662 2.612 5.662 6.06 0 3.398-2.333 6.027-5.678 6.027H82.3V.731zm10.828 12.087h2.287V.731h-2.287zm8.541 0H99.38V2.783h-2.364V.73h7.015v2.052h-2.364v10.035M110.862.73h2.287v6.634c0 1.462.124 3.52 2.069 3.52 1.944 0 2.069-2.058 2.069-3.52V.73h2.287v7.088c0 2.893-1.214 5.078-4.356 5.078s-4.356-2.185-4.356-5.078V.731M121.97.73h1.649l6.176 8.128h.03V.731h2.287v12.188h-1.648l-6.176-8.31h-.031v8.21h-2.287V.73m12.586 12.088h2.286V.731h-2.286zm9.972-10.084c-2.163 0-3.438 1.972-3.438 3.928 0 1.86.902 4.152 3.438 4.152 2.535 0 3.437-2.292 3.437-4.152 0-1.956-1.275-3.928-3.437-3.928zm0 10.163c-3.578 0-5.803-2.697-5.803-6.099 0-3.432 2.303-6.067 5.803-6.067s5.802 2.635 5.802 6.067c0 3.402-2.225 6.099-5.802 6.099zM152.23.73h1.649l6.175 8.128h.031V.731h2.286v12.087h-1.648l-6.176-8.208h-.03v8.208h-2.288V.731m23.102 2.003c-2.162 0-3.437 1.972-3.437 3.928 0 1.86.902 4.152 3.437 4.152 2.536 0 3.438-2.292 3.438-4.152 0-1.956-1.275-3.928-3.438-3.928zm0 10.163c-3.577 0-5.802-2.698-5.802-6.1 0-3.434 2.302-6.07 5.802-6.07 3.5 0 5.802 2.636 5.802 6.07 0 3.402-2.224 6.1-5.802 6.1zm9.989-10.114v2.661h3.313v2.052h-3.313v5.322h-2.287V.731h5.818v2.052h-3.531" fill="#1A1919"/></g></svg>