<?xml version="1.0" encoding="UTF-8"?>
<svg version="1.1" xmlns="http://www.w3.org/2000/svg" width="152" height="148">
<path d="M0 0 C50.16 0 100.32 0 152 0 C152 48.84 152 97.68 152 148 C101.84 148 51.68 148 0 148 C0 99.16 0 50.32 0 0 Z " fill="#0752B4" transform="translate(0,0)"/>
<path d="M0 0 C48.18 0 96.36 0 146 0 C142.66815554 16.65922231 132.25064621 31.43425006 118.375 41.0625 C104.25082572 50.15799574 91.81197518 54.19815301 75.0168457 54.29516602 C73.64304245 54.30661841 72.26928129 54.32696222 70.89575195 54.35668945 C50.87083097 54.78850018 33.78412198 47.35140443 19 34 C10.15657227 25.42263528 4.0879424 14.60144297 0 3 C0 2.01 0 1.02 0 0 Z " fill="#EFECED" transform="translate(3,94)"/>
<path d="M0 0 C50.16 0 100.32 0 152 0 C152 24.42 152 48.84 152 74 C131.87 74 111.74 74 91 74 C91 73.67 91 73.34 91 73 C92.258125 72.773125 93.51625 72.54625 94.8125 72.3125 C112.60541717 68.30909364 128.8394634 56.94370171 138.87109375 41.85693359 C142.98767571 35.0855836 146.49702095 27.50893716 149 20 C100.82 20 52.64 20 3 20 C8.94625511 34.31225892 8.94625511 34.31225892 17 47 C17.4846875 47.65742187 17.969375 48.31484375 18.46875 48.9921875 C28.3949823 61.49729387 44.73439019 69.57425292 60 73 C60 73.33 60 73.66 60 74 C40.2 74 20.4 74 0 74 C0 49.58 0 25.16 0 0 Z " fill="#EFECED" transform="translate(0,74)"/>
<path d="M0 0 C25.08 0 50.16 0 76 0 C76 22.77 76 45.54 76 69 C75.67 69 75.34 69 75 69 C74.01 62.07 74.01 62.07 73 55 C48.91 54.67 24.82 54.34 0 54 C0 47.73 0 41.46 0 35 C21.12 34.67 42.24 34.34 64 34 C56.44240294 22.82735041 56.44240294 22.82735041 45.45288086 15.28515625 C42.51095308 14.98200921 39.67544637 14.94308368 36.71875 15 C35.66465942 14.98912354 34.61056885 14.97824707 33.52453613 14.96704102 C30.18196753 14.94099793 26.8424844 14.96965756 23.5 15 C21.22394257 14.99190361 18.94789488 14.98022226 16.671875 14.96484375 C11.11383804 14.9350763 5.55790838 14.95433941 0 15 C0 10.05 0 5.1 0 0 Z " fill="#FEFDFD" transform="translate(76,0)"/>
<path d="M0 0 C48.18 0 96.36 0 146 0 C145 5 145 5 138 19 C95.1 19 52.2 19 8 19 C-0 3 -0 3 0 0 Z " fill="#D70022" transform="translate(3,94)"/>
<path d="M0 0 C9.50074636 -0.02255226 19.00147507 -0.0409158 28.50224209 -0.05181217 C32.91337004 -0.05704069 37.3244788 -0.06413777 41.7355957 -0.07543945 C45.98901115 -0.08626944 50.24240809 -0.09227707 54.49583626 -0.09487724 C56.12221633 -0.09673129 57.74859534 -0.10035152 59.37496758 -0.10573006 C61.64510193 -0.11294198 63.91515885 -0.11399088 66.18530273 -0.11352539 C68.12722755 -0.11685631 68.12722755 -0.11685631 70.10838318 -0.12025452 C73 0 73 0 74 1 C74.40202391 3.24194353 74.7466095 5.49430782 75.0625 7.75 C75.32740234 9.59851563 75.32740234 9.59851563 75.59765625 11.484375 C76 15 76 15 76 20 C50.92 20 25.84 20 0 20 C0 13.4 0 6.8 0 0 Z " fill="#D8092B" transform="translate(76,54)"/>
<path d="M0 0 C19.8 0 39.6 0 60 0 C55.20339868 2.39830066 50.27957744 4.03808877 45.21484375 5.78125 C41.91487689 6.89516476 41.91487689 6.89516476 39 9 C39.99 9.66 40.98 10.32 42 11 C41.154375 11.515625 40.30875 12.03125 39.4375 12.5625 C38.633125 13.366875 37.82875 14.17125 37 15 C37.0636079 18.70054409 37.0636079 18.70054409 38 22 C37.401875 21.690625 36.80375 21.38125 36.1875 21.0625 C33.91043228 19.89790296 33.91043228 19.89790296 31 19 C28.80961577 20.37168238 28.80961577 20.37168238 27 22 C26.34 21.67 25.68 21.34 25 21 C25 20.34 25 19.68 25 19 C23.53548421 20.41027446 22.0786107 21.82848796 20.625 23.25 C19.81289063 24.03890625 19.00078125 24.8278125 18.1640625 25.640625 C15.74788624 28.27486771 14 30.35143655 14 34 C12 35.625 12 35.625 10 37 C10.33 39.31 10.66 41.62 11 44 C9.68 44 8.36 44 7 44 C5.95785309 48.61507774 5.95785309 48.61507774 7 53 C8.89533342 53.46523063 8.89533342 53.46523063 11.0625 53.625 C13.0115625 53.810625 13.0115625 53.810625 15 54 C13.71034824 55.37562854 12.37310707 56.70766393 11 58 C10.34 58 9.68 58 9 58 C9.66 60.64 10.32 63.28 11 66 C10.1028125 65.5359375 10.1028125 65.5359375 9.1875 65.0625 C5.38527771 63.21570631 4.27196618 62.93200845 0 64 C0 42.88 0 21.76 0 0 Z " fill="#FCFDFD" transform="translate(0,0)"/>
<path d="M0 0 C8.38862489 -0.18088679 16.77572948 -0.32758286 25.16578197 -0.41449738 C29.06186158 -0.45621686 32.95653594 -0.51277585 36.85180664 -0.60351562 C40.61260534 -0.69057259 44.3720547 -0.73829853 48.13378334 -0.75901794 C49.56727664 -0.77377791 51.00069758 -0.80260455 52.43361473 -0.84584045 C63.63973959 -1.17045614 63.63973959 -1.17045614 66.95547485 1.68261719 C68.29726997 3.76588518 69.17959512 5.66662536 70 8 C70.30951096 8.72255981 70.61902191 9.44511963 70.93791199 10.1895752 C72.18912783 13.22670482 73 15.69697058 73 19 C48.91 19 24.82 19 0 19 C0 12.73 0 6.46 0 0 Z " fill="#EFF0F0" transform="translate(76,35)"/>
<path d="M0 0 C0.33 0 0.66 0 1 0 C1 21.45 1 42.9 1 65 C-19.13 65 -39.26 65 -60 65 C-60 64.67 -60 64.34 -60 64 C-58.741875 63.773125 -57.48375 63.54625 -56.1875 63.3125 C-38.4686609 59.3257612 -22.12140104 47.98973017 -12.171875 32.91210938 C-5.97073927 22.79392291 -0.74115546 11.97802853 0 0 Z " fill="#FEFCFD" transform="translate(151,83)"/>
<path d="M0 0 C6.61581566 -0.29883809 13.22762933 -0.51536988 19.84863281 -0.65917969 C22.09542324 -0.71917151 24.34175218 -0.80080146 26.58691406 -0.90527344 C47.26465098 -1.84266418 47.26465098 -1.84266418 53.73699951 3.95574951 C58.3065806 8.81143 61.46196053 14.33913685 65 20 C43.55 20 22.1 20 0 20 C0 13.4 0 6.8 0 0 Z " fill="#D8092B" transform="translate(76,15)"/>
<path d="M0 0 C0.33 0 0.66 0 1 0 C1.02835937 0.62261719 1.05671875 1.24523437 1.0859375 1.88671875 C2.82462486 18.73318949 12.61655485 36.43776352 25.55957031 47.31005859 C35.83095227 55.40275728 47.25025259 61.13883621 60 64 C60 64.33 60 64.66 60 65 C40.2 65 20.4 65 0 65 C0 43.55 0 22.1 0 0 Z " fill="#FEFDFD" transform="translate(0,83)"/>
<path d="M0 0 C30.36 0 60.72 0 92 0 C79.86153058 12.13846942 64.59711516 15.19939409 48.0168457 15.29516602 C46.64304245 15.30661841 45.26928129 15.32696222 43.89575195 15.35668945 C31.84409221 15.61656743 21.2905996 13.53357648 10.5 8.0625 C9.5615625 7.59972656 8.623125 7.13695312 7.65625 6.66015625 C5 5 5 5 0 0 Z " fill="#D80729" transform="translate(30,133)"/>
<path d="M0 0 C16.51314507 -0.90953675 30.20754833 2.08447256 44 12 C44.66 12.99 45.32 13.98 46 15 C30.82 15 15.64 15 0 15 C0 10.05 0 5.1 0 0 Z " fill="#EFEEEE" transform="translate(76,0)"/>
<path d="M0 0 C0.66 0 1.32 0 2 0 C2.33 1.98 2.66 3.96 3 6 C5.64 6 8.28 6 11 6 C10.154375 6.86625 9.30875 7.7325 8.4375 8.625 C6.17846588 11.29015261 5.98160412 11.66887413 6.1875 15.375 C6.455625 16.24125 6.72375 17.1075 7 18 C6.2575 17.46375 5.515 16.9275 4.75 16.375 C3.8425 15.92125 2.935 15.4675 2 15 C-0.16666667 15.66666667 -0.16666667 15.66666667 -2 17 C-2.99 17.33 -3.98 17.66 -5 18 C-4.5978125 16.4221875 -4.5978125 16.4221875 -4.1875 14.8125 C-3.5625 10.85416667 -3.5625 10.85416667 -6.4375 8.0625 C-7.283125 7.381875 -8.12875 6.70125 -9 6 C-6.36 6 -3.72 6 -1 6 C-0.67 4.02 -0.34 2.04 0 0 Z " fill="#DFE2EA" transform="translate(58,26)"/>
<path d="M0 0 C0.66 0 1.32 0 2 0 C2.33 1.98 2.66 3.96 3 6 C5.64 6 8.28 6 11 6 C11 6.66 11 7.32 11 8 C8.5 9.625 8.5 9.625 6 11 C6.33 13.31 6.66 15.62 7 18 C6.278125 17.46375 5.55625 16.9275 4.8125 16.375 C2.08478986 14.6555022 2.08478986 14.6555022 -0.6875 15.75 C-1.450625 16.1625 -2.21375 16.575 -3 17 C-3.66 17.33 -4.32 17.66 -5 18 C-4.5978125 16.4221875 -4.5978125 16.4221875 -4.1875 14.8125 C-3.5625 10.85416667 -3.5625 10.85416667 -6.4375 8.0625 C-7.283125 7.381875 -8.12875 6.70125 -9 6 C-6.36 6 -3.72 6 -1 6 C-0.67 4.02 -0.34 2.04 0 0 Z " fill="#DDE1EA" transform="translate(58,4)"/>
<path d="M0 0 C0.66 0.33 1.32 0.66 2 1 C2.625 3.5625 2.625 3.5625 3 6 C5.64 6 8.28 6 11 6 C9.71034824 7.37562854 8.37310707 8.70766393 7 10 C6.34 10 5.68 10 5 10 C5.66 12.64 6.32 15.28 7 18 C6.278125 17.46375 5.55625 16.9275 4.8125 16.375 C2.08478986 14.6555022 2.08478986 14.6555022 -0.6875 15.75 C-1.450625 16.1625 -2.21375 16.575 -3 17 C-3.66 17.33 -4.32 17.66 -5 18 C-4.67 15.36 -4.34 12.72 -4 10 C-4.639375 9.71125 -5.27875 9.4225 -5.9375 9.125 C-8 8 -8 8 -9 6 C-5.535 5.505 -5.535 5.505 -2 5 C-1.34 3.35 -0.68 1.7 0 0 Z " fill="#E1E4EB" transform="translate(31,48)"/>
<path d="M0 0 C0.66 0.33 1.32 0.66 2 1 C2.625 3.5625 2.625 3.5625 3 6 C5.64 6 8.28 6 11 6 C9.71034824 7.37562854 8.37310707 8.70766393 7 10 C6.34 10 5.68 10 5 10 C5.66 12.64 6.32 15.28 7 18 C6.4225 17.67 5.845 17.34 5.25 17 C2.80116138 15.72924102 2.80116138 15.72924102 -1 16 C-3.20067421 16.93283296 -3.20067421 16.93283296 -5 18 C-4.67 15.36 -4.34 12.72 -4 10 C-4.639375 9.71125 -5.27875 9.4225 -5.9375 9.125 C-8 8 -8 8 -9 6 C-6.36 6 -3.72 6 -1 6 C-0.67 4.02 -0.34 2.04 0 0 Z " fill="#E1E4EB" transform="translate(31,26)"/>
<path d="M0 0 C0.66 0 1.32 0 2 0 C2.33 1.98 2.66 3.96 3 6 C5.64 6 8.28 6 11 6 C10.154375 6.86625 9.30875 7.7325 8.4375 8.625 C6.17846588 11.29015261 5.98160412 11.66887413 6.1875 15.375 C6.455625 16.24125 6.72375 17.1075 7 18 C6.278125 17.46375 5.55625 16.9275 4.8125 16.375 C2.08478986 14.6555022 2.08478986 14.6555022 -0.6875 15.75 C-1.450625 16.1625 -2.21375 16.575 -3 17 C-3.66 17.33 -4.32 17.66 -5 18 C-4.5978125 16.4221875 -4.5978125 16.4221875 -4.1875 14.8125 C-3.5625 10.85416667 -3.5625 10.85416667 -6.4375 8.0625 C-7.283125 7.381875 -8.12875 6.70125 -9 6 C-6.36 6 -3.72 6 -1 6 C-0.67 4.02 -0.34 2.04 0 0 Z " fill="#E2E5EB" transform="translate(58,48)"/>
<path d="M0 0 C1 2 2 4 3 6 C4.89533342 6.46523063 4.89533342 6.46523063 7.0625 6.625 C8.361875 6.74875 9.66125 6.8725 11 7 C9.71034824 8.37562854 8.37310707 9.70766393 7 11 C6.34 11 5.68 11 5 11 C5.66 13.64 6.32 16.28 7 19 C6.401875 18.690625 5.80375 18.38125 5.1875 18.0625 C1.23497392 16.12172731 1.23497392 16.12172731 -3 17 C-2.48517081 11.147205 -1.54642808 5.6702363 0 0 Z " fill="#E2E5EB" transform="translate(4,47)"/>
<path d="M0 0 C-0.845625 0.680625 -1.69125 1.36125 -2.5625 2.0625 C-5.4375 4.85416667 -5.4375 4.85416667 -4.8125 8.8125 C-4.544375 9.864375 -4.27625 10.91625 -4 12 C-4.598125 11.690625 -5.19625 11.38125 -5.8125 11.0625 C-8.08956772 9.89790296 -8.08956772 9.89790296 -11 9 C-13.19038423 10.37168238 -13.19038423 10.37168238 -15 12 C-15.66 11.67 -16.32 11.34 -17 11 C-16.69827156 7.70945215 -16.30978789 6.30687087 -13.92578125 3.9453125 C-13.06339844 3.34460938 -12.20101563 2.74390625 -11.3125 2.125 C-10.46300781 1.50882813 -9.61351562 0.89265625 -8.73828125 0.2578125 C-5.36878907 -1.28994282 -3.53055999 -0.92011666 0 0 Z " fill="#DFE3EA" transform="translate(42,10)"/>
</svg>
