<svg width="147" height="198" viewBox="0 0 147 198" fill="none" xmlns="http://www.w3.org/2000/svg">
<path opacity="0.2" d="M15 264C38.8336 264 62.2226 257.547 82.6846 245.326C103.146 233.105 119.918 215.572 131.219 194.588C142.519 173.604 147.928 149.951 146.87 126.141C145.812 102.331 138.327 79.2515 125.21 59.3521C112.093 39.4528 93.8329 23.4762 72.3678 13.118C50.9027 2.75976 27.0336 -1.59355 3.29387 0.520084C-20.4459 2.63372 -43.1704 11.1354 -62.468 25.1229C-81.7655 39.1103 -96.9159 58.0616 -106.311 79.9653L-68.7736 96.0665C-62.2855 80.9405 -51.8232 67.8534 -38.4969 58.1941C-25.1707 48.5348 -9.47779 42.6638 6.91612 41.2042C23.31 39.7445 39.7933 42.7508 54.6164 49.9039C69.4395 57.0569 82.0494 68.0899 91.1077 81.8317C100.166 95.5735 105.335 111.512 106.065 127.954C106.796 144.397 103.061 160.73 95.2568 175.221C87.4529 189.712 75.8712 201.82 61.7408 210.259C47.6104 218.699 31.4587 223.155 15 223.155L15 264Z" fill="#006CE4"/>
</svg>
