<svg width="168" height="386" viewBox="0 0 168 386" fill="none" xmlns="http://www.w3.org/2000/svg">
<g opacity="0.1">
<path d="M116.528 13.6858H52.2421V105.372H116.528V13.6858Z" stroke="#646464" stroke-opacity="0.5" stroke-width="2" stroke-linecap="round" stroke-linejoin="round"/>
<path d="M132.789 91.4013H35.9797V180.472H132.789V91.4013Z" stroke="#646464" stroke-opacity="0.5" stroke-width="2" stroke-linecap="round" stroke-linejoin="round"/>
<path d="M153.975 169.117H14.8007V435.452H153.975V169.117Z" stroke="#646464" stroke-opacity="0.5" stroke-width="2" stroke-linecap="round" stroke-linejoin="round"/>
<path d="M161.432 180.228C161.439 180.137 161.445 180.043 161.445 179.952C161.445 171.717 156.226 165.042 149.796 165.042H20.4465C14.0125 165.042 8.80005 171.717 8.80005 179.952C8.80005 180.041 8.80423 180.134 8.80423 180.228H161.432Z" stroke="#646464" stroke-opacity="0.5" stroke-width="2" stroke-linecap="round" stroke-linejoin="round"/>
<path d="M140.059 96.9808C140.059 96.8897 140.063 96.8014 140.063 96.7077C140.063 88.4722 134.851 81.7975 128.421 81.7975H40.7249C34.2909 81.7975 29.0805 88.4722 29.0805 96.7077C29.0805 96.7987 29.0847 96.8871 29.0847 96.9808H140.059Z" stroke="#646464" stroke-opacity="0.5" stroke-width="2" stroke-linecap="round" stroke-linejoin="round"/>
<path d="M123.232 16.6467C123.238 16.5557 123.244 16.4646 123.244 16.3736C123.244 8.13537 118.026 1.45535 111.585 1.45535H56.643C50.2131 1.45535 44.9944 8.13537 44.9944 16.3736C44.9944 16.4619 45.0048 16.553 45.0048 16.6467H123.232Z" stroke="#646464" stroke-opacity="0.5" stroke-width="2" stroke-linecap="round" stroke-linejoin="round"/>
<path d="M54.7916 368.427H36.4559V397.924H54.7916V368.427Z" stroke="#646464" stroke-opacity="0.5" stroke-width="2" stroke-linecap="round" stroke-linejoin="round"/>
<path d="M54.7916 309.619H36.4559V339.107H54.7916V309.619Z" stroke="#646464" stroke-opacity="0.5" stroke-width="2" stroke-linecap="round" stroke-linejoin="round"/>
<path d="M33.3809 339.067C33.3809 339.105 33.3788 339.134 33.3788 339.174C33.3788 342.219 35.3053 344.684 37.6814 344.684H53.1682C55.5381 344.684 57.4646 342.219 57.4646 339.174C57.4646 339.134 57.4646 339.105 57.4646 339.067H33.3809Z" stroke="#646464" stroke-opacity="0.5" stroke-width="2" stroke-linecap="round" stroke-linejoin="round"/>
<path d="M54.7916 250.816H36.4559V280.299H54.7916V250.816Z" stroke="#646464" stroke-opacity="0.5" stroke-width="2" stroke-linecap="round" stroke-linejoin="round"/>
<path d="M33.3809 280.259C33.3809 280.297 33.3788 280.331 33.3788 280.366C33.3788 283.405 35.3053 285.874 37.6814 285.874H53.1682C55.5381 285.874 57.4646 283.405 57.4646 280.366C57.4646 280.331 57.4646 280.297 57.4646 280.259H33.3809Z" stroke="#646464" stroke-opacity="0.5" stroke-width="2" stroke-linecap="round" stroke-linejoin="round"/>
<path d="M54.7916 192.008H36.4559V221.494H54.7916V192.008Z" stroke="#646464" stroke-opacity="0.5" stroke-width="2" stroke-linecap="round" stroke-linejoin="round"/>
<path d="M33.3809 221.454C33.3809 221.486 33.3788 221.515 33.3788 221.55C33.3788 224.594 35.3053 227.065 37.6814 227.065H53.1683C55.5381 227.065 57.4646 224.594 57.4646 221.55C57.4646 221.515 57.4646 221.486 57.4646 221.454H33.3809Z" stroke="#646464" stroke-opacity="0.5" stroke-width="2" stroke-linecap="round" stroke-linejoin="round"/>
<path d="M94.8478 31.5999H76.5142V61.091H94.8478V31.5999Z" stroke="#646464" stroke-opacity="0.5" stroke-width="2" stroke-linecap="round" stroke-linejoin="round"/>
<path d="M73.4399 61.0508C73.4399 61.0909 73.4336 61.1177 73.4336 61.1579C73.4336 64.2021 75.3621 66.6625 77.7362 66.6625H93.223C95.595 66.6625 97.5172 64.2021 97.5172 61.1579C97.5172 61.1177 97.5172 61.0909 97.5172 61.0508H73.4399Z" stroke="#646464" stroke-opacity="0.5" stroke-width="2" stroke-linecap="round" stroke-linejoin="round"/>
<path d="M116.442 113.575H98.1067V143.061H116.442V113.575Z" stroke="#646464" stroke-opacity="0.5" stroke-width="2" stroke-linecap="round" stroke-linejoin="round"/>
<path d="M95.0314 143.029C95.0314 143.061 95.0272 143.098 95.0272 143.131C95.0272 146.169 96.9578 148.641 99.3298 148.641H114.819C117.187 148.641 119.113 146.169 119.113 143.131C119.113 143.098 119.113 143.061 119.113 143.029H95.0314Z" stroke="#646464" stroke-opacity="0.5" stroke-width="2" stroke-linecap="round" stroke-linejoin="round"/>
<path d="M73.2504 113.583H54.9147V143.069H73.2504V113.583Z" stroke="#646464" stroke-opacity="0.5" stroke-width="2" stroke-linecap="round" stroke-linejoin="round"/>
<path d="M51.8423 143.029C51.8423 143.061 51.8381 143.093 51.8381 143.125C51.8381 146.169 53.7666 148.64 56.1407 148.64H71.6296C73.9995 148.64 75.9259 146.169 75.9259 143.125C75.9259 143.093 75.9259 143.061 75.9259 143.029H51.8423Z" stroke="#646464" stroke-opacity="0.5" stroke-width="2" stroke-linecap="round" stroke-linejoin="round"/>
<path d="M94.8433 368.427H76.5034V397.924H94.8433V368.427Z" stroke="#646464" stroke-opacity="0.5" stroke-width="2" stroke-linecap="round" stroke-linejoin="round"/>
<path d="M94.8433 309.619H76.5034V339.107H94.8433V309.619Z" stroke="#646464" stroke-opacity="0.5" stroke-width="2" stroke-linecap="round" stroke-linejoin="round"/>
<path d="M73.4392 339.067C73.4392 339.105 73.4371 339.134 73.4371 339.174C73.4371 342.219 75.3614 344.684 77.7355 344.684H93.2139C95.5922 344.684 97.5165 342.219 97.5165 339.174C97.5165 339.134 97.5124 339.105 97.5124 339.067H73.4392Z" stroke="#646464" stroke-opacity="0.5" stroke-width="2" stroke-linecap="round" stroke-linejoin="round"/>
<path d="M94.8433 250.816H76.5034V280.299H94.8433V250.816Z" stroke="#646464" stroke-opacity="0.5" stroke-width="2" stroke-linecap="round" stroke-linejoin="round"/>
<path d="M73.4392 280.259C73.4392 280.297 73.4371 280.331 73.4371 280.366C73.4371 283.405 75.3614 285.874 77.7355 285.874H93.2139C95.5922 285.874 97.5165 283.405 97.5165 280.366C97.5165 280.331 97.5124 280.297 97.5124 280.259H73.4392Z" stroke="#646464" stroke-opacity="0.5" stroke-width="2" stroke-linecap="round" stroke-linejoin="round"/>
<path d="M94.8434 192.008H76.5035V221.494H94.8434V192.008Z" stroke="#646464" stroke-opacity="0.5" stroke-width="2" stroke-linecap="round" stroke-linejoin="round"/>
<path d="M73.4392 221.454C73.4392 221.486 73.4371 221.515 73.4371 221.55C73.4371 224.594 75.3615 227.065 77.7355 227.065H93.214C95.5923 227.065 97.5166 224.594 97.5166 221.55C97.5166 221.515 97.5124 221.486 97.5124 221.454H73.4392Z" stroke="#646464" stroke-opacity="0.5" stroke-width="2" stroke-linecap="round" stroke-linejoin="round"/>
<path d="M134.902 368.427H116.558V397.924H134.902V368.427Z" stroke="#646464" stroke-opacity="0.5" stroke-width="2" stroke-linecap="round" stroke-linejoin="round"/>
<path d="M134.902 309.619H116.558V339.107H134.902V309.619Z" stroke="#646464" stroke-opacity="0.5" stroke-width="2" stroke-linecap="round" stroke-linejoin="round"/>
<path d="M113.491 339.067C113.491 339.105 113.487 339.134 113.487 339.174C113.487 342.219 115.414 344.684 117.786 344.684H133.268C135.644 344.684 137.567 342.219 137.567 339.174C137.567 339.134 137.565 339.105 137.565 339.067H113.491Z" stroke="#646464" stroke-opacity="0.5" stroke-width="2" stroke-linecap="round" stroke-linejoin="round"/>
<path d="M134.902 250.816H116.558V280.299H134.902V250.816Z" stroke="#646464" stroke-opacity="0.5" stroke-width="2" stroke-linecap="round" stroke-linejoin="round"/>
<path d="M113.491 280.259C113.491 280.297 113.487 280.331 113.487 280.366C113.487 283.405 115.414 285.874 117.786 285.874H133.268C135.644 285.874 137.567 283.405 137.567 280.366C137.567 280.331 137.565 280.297 137.565 280.259H113.491Z" stroke="#646464" stroke-opacity="0.5" stroke-width="2" stroke-linecap="round" stroke-linejoin="round"/>
<path d="M134.902 192.008H116.558V221.494H134.902V192.008Z" stroke="#646464" stroke-opacity="0.5" stroke-width="2" stroke-linecap="round" stroke-linejoin="round"/>
<path d="M113.491 221.454C113.491 221.486 113.487 221.515 113.487 221.55C113.487 224.594 115.413 227.065 117.785 227.065H133.268C135.644 227.065 137.566 224.594 137.566 221.55C137.566 221.515 137.564 221.486 137.564 221.454H113.491Z" stroke="#646464" stroke-opacity="0.5" stroke-width="2" stroke-linecap="round" stroke-linejoin="round"/>
</g>
</svg>
